<mxfile host="app.diagrams.net" modified="2023-08-15T17:26:10.013Z" agent="Mozilla/5.0 (Windows NT 10.0; Win64; x64) AppleWebKit/537.36 (KHTML, like Gecko) Chrome/115.0.0.0 Safari/537.36" etag="qtJdL_SnB-pm3mST7bZ5" version="21.6.8" type="github">
  <diagram name="PÃ¡gina-1" id="HYSICTC4ZC2V-W3fSYkS">
    <mxGraphModel dx="1434" dy="758" grid="1" gridSize="10" guides="1" tooltips="1" connect="1" arrows="1" fold="1" page="1" pageScale="1" pageWidth="827" pageHeight="1169" math="0" shadow="0">
      <root>
        <mxCell id="0" />
        <mxCell id="1" parent="0" />
        <mxCell id="GAphL2aPd4LeTxmNA1Ve-1" value="user" style="swimlane;whiteSpace=wrap;html=1;" vertex="1" parent="1">
          <mxGeometry x="316" y="290" width="200" height="200" as="geometry" />
        </mxCell>
        <mxCell id="GAphL2aPd4LeTxmNA1Ve-2" value="id: TEXT" style="text;html=1;align=left;verticalAlign=middle;resizable=0;points=[];autosize=1;strokeColor=none;fillColor=none;" vertex="1" parent="GAphL2aPd4LeTxmNA1Ve-1">
          <mxGeometry x="5" y="30" width="70" height="30" as="geometry" />
        </mxCell>
        <mxCell id="GAphL2aPd4LeTxmNA1Ve-3" value="email: TEXT" style="text;html=1;align=left;verticalAlign=middle;resizable=0;points=[];autosize=1;strokeColor=none;fillColor=none;" vertex="1" parent="GAphL2aPd4LeTxmNA1Ve-1">
          <mxGeometry x="5" y="50" width="90" height="30" as="geometry" />
        </mxCell>
        <mxCell id="GAphL2aPd4LeTxmNA1Ve-8" value="favorits: [TEXT]" style="text;html=1;align=left;verticalAlign=middle;resizable=0;points=[];autosize=1;strokeColor=none;fillColor=none;" vertex="1" parent="GAphL2aPd4LeTxmNA1Ve-1">
          <mxGeometry x="5" y="70" width="110" height="30" as="geometry" />
        </mxCell>
      </root>
    </mxGraphModel>
  </diagram>
</mxfile>
